<svg xmlns="http://www.w3.org/2000/svg" viewBox="0 0 128 128" role="img" aria-label="hieulw devops favicon">
  <defs>
    <linearGradient id="bg" x1="0" y1="0" x2="1" y2="1">
      <stop offset="0%" stop-color="#050a06"/>
      <stop offset="100%" stop-color="#0b1b0f"/>
    </linearGradient>
    <linearGradient id="neon" x1="0" y1="0" x2="1" y2="0">
      <stop offset="0%" stop-color="#1fda63"/>
      <stop offset="100%" stop-color="#8dff6e"/>
    </linearGradient>
    <filter id="glow" x="-50%" y="-50%" width="200%" height="200%">
      <feGaussianBlur stdDeviation="1.2" result="blur"/>
      <feMerge>
        <feMergeNode in="blur"/>
        <feMergeNode in="SourceGraphic"/>
      </feMerge>
    </filter>
  </defs>

  <rect x="0" y="0" width="128" height="128" fill="url(#bg)"/>
  <path d="M0 16h128M0 32h128M0 48h128M0 64h128M0 80h128M0 96h128M0 112h128M16 0v128M32 0v128M48 0v128M64 0v128M80 0v128M96 0v128M112 0v128" stroke="#10301b" stroke-width="1" opacity="0.35"/>

  <path d="M8 8h20M8 8v20M120 8h-20M120 8v20M8 120h20M8 120v-20M120 120h-20M120 120v-20" stroke="#2a7a46" stroke-width="3" stroke-linecap="round"/>

  <path d="M30 39h22v8h-14v34h14v8H30z" fill="url(#neon)" filter="url(#glow)"/>
  <path d="M58 81h40v8H58z" fill="url(#neon)" filter="url(#glow)"/>
  <path d="M84 39h14l-8 16h10l-18 34h-12l12-24H72z" fill="url(#neon)" filter="url(#glow)"/>

  <circle cx="22" cy="22" r="3" fill="#8dff6e"/>
  <circle cx="106" cy="106" r="3" fill="#1fda63"/>
</svg>
